<?xml version="1.0" standalone="no"?>
<!DOCTYPE svg PUBLIC "-//W3C//DTD SVG 20010904//EN"
 "http://www.w3.org/TR/2001/REC-SVG-20010904/DTD/svg10.dtd">
<svg version="1.0" xmlns="http://www.w3.org/2000/svg"
 width="500.000000pt" height="500.000000pt" viewBox="0 0 500.000000 500.000000"
 preserveAspectRatio="xMidYMid meet">
<metadata>
Created by potrace 1.14, written by Peter Selinger 2001-2017
</metadata>
<g transform="translate(0.000000,500.000000) scale(0.100000,-0.100000)"
fill="#000000" stroke="none">
<path d="M2360 4606 c-163 -48 -312 -163 -451 -350 -33 -43 -59 -83 -59 -89 0
-5 -8 -6 -17 -2 -10 4 -67 20 -128 35 -463 118 -806 -12 -911 -345 -22 -69
-23 -70 -64 -79 -26 -6 -58 -24 -87 -50 -76 -69 -87 -171 -26 -258 27 -40 93
-78 134 -78 23 0 27 -7 51 -102 14 -57 28 -110 32 -118 4 -10 -8 -24 -41 -45
-156 -98 -307 -261 -368 -398 -57 -131 -61 -308 -8 -432 60 -143 188 -292 343
-397 l77 -53 -19 -65 c-154 -544 -5 -922 397 -1005 76 -16 259 -22 315 -11 13
3 42 8 65 11 47 7 183 41 220 55 23 9 28 6 58 -37 119 -173 250 -296 387 -361
141 -67 297 -72 445 -16 138 53 317 213 419 375 l29 46 86 -23 c268 -74 480
-75 660 -4 303 119 413 457 297 911 l-32 126 45 29 c152 96 302 257 358 384
38 85 44 106 51 171 25 224 -84 444 -308 618 -36 28 -69 54 -75 59 -5 4 -25
17 -43 27 -21 13 -30 25 -27 35 13 32 46 157 51 190 3 19 7 41 9 48 8 23 18
156 17 227 -1 85 -26 213 -54 272 -20 43 -20 43 -1 89 55 126 -39 274 -173
274 -44 0 -124 -26 -124 -40 0 -18 -37 -19 -109 -5 -69 15 -239 21 -301 11
-14 -2 -47 -7 -74 -11 -26 -4 -94 -19 -150 -34 l-103 -28 -29 46 c-109 172
-287 327 -440 383 -73 27 -254 35 -324 14z m303 -80 c92 -35 170 -87 253 -170
71 -71 164 -191 164 -211 0 -5 -28 -21 -62 -34 -102 -39 -295 -135 -411 -204
l-107 -65 -82 50 c-152 92 -355 192 -491 241 -17 6 -15 12 19 60 222 307 474
424 717 333z m-1129 -360 c96 -16 201 -40 263 -61 7 -2 -6 -40 -39 -106 -71
-143 -126 -295 -187 -516 -10 -38 -16 -43 -54 -53 -175 -45 -391 -124 -530
-194 -48 -24 -89 -41 -91 -37 -8 13 -46 170 -46 190 0 12 6 21 14 21 22 0 93
86 100 121 20 100 -17 180 -108 234 -15 9 -15 14 -3 55 61 196 215 323 422
347 28 3 51 6 53 8 4 4 173 -4 206 -9z m2232 -6 l54 -12 -6 -48 c-11 -85 30
-161 108 -201 45 -23 115 -27 159 -9 37 16 41 11 64 -64 30 -100 37 -221 19
-356 -7 -52 -15 -104 -18 -115 -10 -46 -38 -150 -42 -157 -2 -3 -43 13 -92 37
-126 63 -276 121 -430 165 -74 21 -136 40 -138 43 -2 2 -22 66 -45 143 -43
150 -86 263 -154 408 -23 50 -44 95 -46 101 -6 15 177 61 291 72 30 3 56 6 58
8 7 6 170 -5 218 -15z m-1836 -101 c152 -58 500 -238 500 -259 0 -3 -39 -34
-87 -68 -49 -33 -132 -95 -186 -137 -73 -55 -107 -75 -130 -76 -18 0 -39 -2
-47 -3 -8 -2 -40 -7 -70 -11 -30 -4 -62 -8 -70 -10 -8 -1 -31 -5 -50 -9 -19
-3 -59 -10 -89 -16 -30 -5 -57 -8 -60 -5 -6 7 49 189 96 315 26 69 132 300
137 300 1 0 26 -9 56 -21z m1253 -96 c67 -140 88 -193 132 -333 34 -110 49
-170 43 -170 -5 0 -99 17 -138 25 -14 3 -41 7 -60 10 -19 3 -44 7 -55 9 -22 4
-143 19 -162 19 -7 0 -34 18 -60 40 -64 53 -262 201 -291 216 -12 6 -22 15
-22 19 0 10 152 99 269 158 82 41 266 121 282 123 3 1 31 -52 62 -116z m-487
-340 c16 -13 46 -36 66 -51 l37 -29 -300 0 c-164 1 -298 1 -296 2 1 1 31 24
67 52 36 27 102 75 148 106 l83 57 83 -58 c45 -31 96 -67 112 -79z m154 -158
c36 -4 64 -15 80 -29 14 -12 50 -44 80 -71 79 -71 325 -319 393 -397 l58 -66
7 -98 c9 -125 9 -501 -1 -617 l-7 -89 -62 -71 c-78 -90 -341 -353 -429 -430
l-67 -58 -93 -7 c-121 -9 -508 -8 -623 1 -74 6 -94 11 -115 30 -14 13 -48 43
-76 68 -78 69 -314 306 -389 391 l-68 77 -6 98 c-9 132 -9 496 0 612 l8 93 57
67 c72 83 347 358 435 434 l67 58 88 6 c48 3 89 7 91 8 7 6 519 -3 572 -10z
m-887 -28 c-4 -7 -35 -37 -67 -67 -80 -74 -228 -222 -295 -296 -30 -32 -51
-54 -48 -49 3 6 8 37 12 70 3 33 10 78 15 100 5 22 11 58 14 79 9 58 18 90 28
103 8 10 72 23 293 62 28 5 51 9 53 10 2 0 -1 -5 -5 -12z m1177 -8 c36 -5 79
-12 95 -15 53 -8 130 -28 141 -36 11 -8 28 -74 40 -153 3 -22 12 -75 18 -117
7 -43 11 -78 9 -78 -2 0 -29 28 -61 62 -75 81 -237 242 -302 301 -59 53 -56
55 60 36z m-1604 -94 c-12 -48 -45 -251 -51 -320 -8 -79 -8 -80 -108 -208 -39
-51 -94 -125 -121 -165 -27 -39 -52 -72 -56 -72 -8 0 -106 171 -163 285 -45
88 -120 266 -115 270 9 7 152 78 199 99 102 45 370 134 408 135 9 1 11 -6 7
-24z m2137 -35 c114 -38 384 -154 404 -174 17 -17 -251 -556 -277 -556 -4 0
-29 33 -56 72 -27 40 -83 116 -125 169 -94 117 -95 120 -103 194 -3 33 -8 71
-10 85 -2 14 -8 48 -12 75 -4 28 -8 55 -10 60 -2 12 -9 43 -19 99 l-8 38 34
-7 c19 -4 101 -29 182 -55z m-2773 -309 c40 -99 138 -293 208 -409 l50 -83
-56 -92 c-74 -122 -160 -292 -201 -397 -19 -47 -37 -88 -40 -92 -8 -9 -148 97
-219 166 -89 86 -171 225 -190 321 -3 17 -5 64 -5 105 1 128 55 252 164 374
59 65 240 209 250 198 3 -4 21 -45 39 -91z m3358 11 c295 -223 375 -512 215
-776 -20 -32 -68 -91 -107 -130 -75 -75 -89 -88 -173 -149 l-53 -39 -10 27
c-55 144 -151 340 -238 484 l-50 83 32 52 c32 49 50 81 129 226 43 80 127 275
127 297 0 19 19 8 128 -75z m-2798 -254 c-8 -83 -4 -523 4 -537 4 -6 2 -9 -6
-5 -14 5 -99 117 -173 229 l-45 66 32 47 c30 46 190 262 192 262 1 0 -1 -28
-4 -62z m2167 -58 c38 -52 84 -116 101 -142 l33 -47 -57 -83 c-32 -46 -78
-110 -103 -143 -25 -32 -51 -65 -56 -73 -7 -9 -9 7 -5 55 3 37 5 175 4 306 -1
132 2 235 6 230 4 -4 39 -51 77 -103z m-2359 -347 c33 -49 95 -132 137 -186
55 -73 75 -107 76 -130 0 -18 3 -45 5 -62 7 -47 26 -168 30 -190 3 -11 6 -33
9 -50 2 -16 7 -42 10 -57 4 -20 1 -28 -9 -28 -19 0 -257 77 -344 111 -61 24
-251 114 -260 123 -5 5 69 180 118 278 53 108 151 278 160 278 3 0 34 -39 68
-87z m2572 30 c45 -76 74 -130 127 -235 44 -88 116 -259 111 -263 -11 -11
-198 -99 -258 -123 -89 -35 -326 -112 -346 -112 -15 0 -13 21 11 140 2 13 7
42 10 65 3 22 8 47 10 55 4 15 17 133 18 156 0 7 34 54 75 105 41 52 102 133
135 182 34 48 64 87 67 87 3 0 21 -26 40 -57z m-2074 -618 c55 -55 124 -121
152 -147 29 -25 52 -48 52 -50 0 -5 -94 10 -248 38 -114 21 -105 12 -127 124
-5 25 -33 194 -39 238 -3 17 10 7 53 -40 31 -34 101 -107 157 -163z m1681 218
c-3 -5 -8 -33 -11 -63 -12 -102 -49 -285 -59 -291 -9 -7 -134 -33 -207 -44
-19 -3 -59 -9 -87 -14 -29 -4 -53 -6 -53 -4 0 2 26 27 57 56 76 70 275 271
321 324 34 40 49 53 39 36z m-2272 -291 c92 -37 180 -65 327 -106 55 -16 58
-18 69 -59 62 -224 112 -363 189 -519 31 -63 44 -101 37 -103 -39 -13 -130
-36 -177 -45 -110 -21 -127 -23 -230 -22 -295 1 -479 130 -545 383 -18 68 -24
224 -12 319 7 51 54 257 63 272 2 3 43 -13 91 -37 49 -24 133 -61 188 -83z
m2953 33 c49 -188 59 -340 31 -477 -41 -207 -167 -341 -369 -393 -93 -24 -260
-24 -395 1 -42 7 -188 45 -197 50 -4 3 2 20 13 39 18 29 27 35 56 35 67 0 142
52 170 119 31 72 7 182 -47 221 -16 12 -16 17 7 94 13 44 28 98 34 118 9 35
14 39 67 54 108 30 257 76 287 89 17 7 59 24 95 39 36 14 99 44 140 65 41 21
78 36 81 32 4 -3 16 -42 27 -86z m-2400 -189 c68 -14 172 -31 252 -41 79 -10
103 -17 124 -37 27 -26 228 -177 284 -213 23 -15 42 -31 42 -34 0 -9 -172
-109 -286 -165 -90 -45 -265 -119 -269 -114 -11 12 -99 198 -123 258 -33 84
-96 277 -107 328 -8 37 -9 37 83 18z m1632 7 c0 -5 -10 -45 -22 -90 l-22 -82
-52 0 c-65 1 -115 -22 -158 -73 -66 -77 -60 -181 14 -259 39 -41 39 -42 23
-73 -8 -17 -17 -32 -18 -34 -4 -5 -184 71 -280 120 -114 57 -275 150 -275 158
0 3 35 30 78 60 42 29 124 90 182 135 99 77 109 83 165 88 67 7 187 24 225 32
14 3 43 8 65 11 22 4 42 8 44 10 8 7 31 4 31 -3z m-788 -77 c114 1 212 5 217
9 6 3 11 3 11 -2 0 -8 -157 -127 -253 -192 l-47 -32 -93 65 c-135 94 -209 154
-197 158 6 2 43 1 83 -3 39 -3 165 -4 279 -3z m88 -394 c94 -54 298 -152 368
-177 28 -11 52 -24 52 -31 0 -16 -128 -180 -176 -225 -134 -126 -260 -183
-404 -183 -195 0 -359 103 -533 334 -31 41 -53 78 -49 81 4 3 34 16 67 29 97
37 333 156 425 214 l85 53 45 -25 c25 -15 79 -46 120 -70z"/>
<path d="M2411 3049 c-119 -22 -266 -133 -318 -239 -131 -270 8 -581 292 -655
290 -75 573 145 573 445 0 198 -134 376 -331 439 -47 16 -158 20 -216 10z"/>
</g>
</svg>
